<?xml version="1.0" encoding="utf-8"?>
<!-- Generator: Adobe Illustrator 23.0.2, SVG Export Plug-In . SVG Version: 6.00 Build 0)  -->
<svg version="1.1" id="Capa_1" xmlns="http://www.w3.org/2000/svg" x="0px" y="0px"
	 viewBox="0 0 137 106.5" style="enable-background:new 0 0 137 106.5;" xml:space="preserve">
<style type="text/css">
	.st0{fill:#B53036;}
	.st1{fill:#AE1D31;}
	.st2{fill:#FFFFFF;}
	.st3{fill:#201913;}
</style>
	<g>
	<rect y="90.5" class="st0" width="3.8" height="15.7"/>
		<rect x="109.1" y="90.5" class="st0" width="3.8" height="15.7"/>
		<polygon class="st0" points="74.5,90.5 70.7,90.5 70.7,100 62.4,90.5 62.4,90.5 58.7,90.5 58.7,106.2 62.5,106.2 62.5,95.9
		71.5,106.2 74.5,106.2 	"/>
		<polygon class="st0"
				 points="130.4,90.5 115.4,90.5 115.4,93.4 121,93.4 121,106.2 124.8,106.2 124.8,93.4 130.4,93.4 	"/>
		<polygon class="st0" points="36.7,93.4 36.7,90.5 26.6,90.5 26.6,90.5 26,90.5 26,106.2 29.8,106.2 29.8,99.9 36.7,99.9 36.7,96.9
		29.8,96.9 29.8,93.4 	"/>
		<polygon class="st0" points="76.1,106.2 84.1,90.7 85.7,90.7 93.8,106.2 89.6,106.2 84.9,97.3 80.3,106.2 	"/>
		<polygon class="st0" points="107,90.8 99,106.2 97.4,106.2 89.3,90.7 93.5,90.7 98.3,99.6 102.8,90.8 	"/>
		<polygon class="st0" points="22.9,90.5 19.1,90.5 19.1,100 10.8,90.5 10.8,90.5 7.1,90.5 7.1,106.2 10.9,106.2 10.9,95.9
		19.9,106.2 22.9,106.2 	"/>
		<path class="st0" d="M47.8,90.3c-5,0-9,3.6-9,8.1c0,4.5,4,8.1,9,8.1c5,0,9-3.6,9-8.1C56.8,93.9,52.7,90.3,47.8,90.3 M47.8,103
		c-2.9,0-5.2-2.1-5.2-4.6c0-2.6,2.3-4.6,5.2-4.6c2.9,0,5.2,2.1,5.2,4.6C52.9,101,50.6,103,47.8,103"/>
		<polygon class="st0" points="0,22.8 22.4,45.2 22.4,81.2 15.6,81.2 15.6,48.1 0,32.5 	"/>
		<path class="st0" d="M46.2,12.5c0,6.9-5.9,12.5-13.1,12.5c-7.2,0-13.1-5.6-13.1-12.5C20.1,5.6,26,0,33.2,0
		C40.4,0,46.2,5.6,46.2,12.5"/>
		<polygon class="st0" points="65.2,22.8 42.8,45.2 42.8,81.2 49.6,81.2 49.6,48.1 65.2,32.5 80.8,48.1 80.8,81.2 87.6,81.2
		87.6,45.2 	"/>
		<polygon class="st0" points="130.4,22.8 108,45.2 108,81.2 114.8,81.2 114.8,48.1 130.4,32.5 	"/>
		<polygon class="st0" points="65.2,13.7 94.4,42.9 94.4,81.2 101.2,81.2 101.2,42.9 130.4,13.7 130.4,4.1 97.8,36.7 65.2,4.1
		32.6,36.7 0,4.1 0,13.7 29.2,42.9 29.2,81.2 36,81.2 36,42.9 	"/>
		<path class="st0" d="M110.3,12.5c0,6.9-5.9,12.5-13.1,12.5c-7.2,0-13.1-5.6-13.1-12.5C84.2,5.6,90,0,97.2,0
		C104.5,0,110.3,5.6,110.3,12.5"/>
		<path class="st0" d="M137,92.6c0,1.2-1,2.1-2.2,2.1c-1.2,0-2.2-0.9-2.2-2.1c0-1.2,1-2.1,2.2-2.1C136,90.5,137,91.4,137,92.6
		 M133.2,92.6c0,0.9,0.7,1.7,1.6,1.7c0.9,0,1.6-0.7,1.6-1.7c0-0.9-0.7-1.7-1.6-1.7C133.9,90.9,133.2,91.7,133.2,92.6"/>
		<path class="st0" d="M134.1,91.5h0.7c0.5,0,0.7,0.3,0.7,0.6c0,0.3-0.1,0.5-0.3,0.6l0.5,1h-0.5l-0.4-0.9h-0.2v0.9h-0.4V91.5z
		 M134.7,92.5c0.2,0,0.3-0.1,0.3-0.3c0-0.2-0.1-0.3-0.3-0.3h-0.2v0.6H134.7z"/>
</g>
</svg>
